<?xml version="1.0" encoding="UTF-8" standalone="no"?>
<!-- Created with Inkscape (http://www.inkscape.org/) -->
<svg id="svg3355" xmlns:rdf="http://www.w3.org/1999/02/22-rdf-syntax-ns#" xmlns="http://www.w3.org/2000/svg" xml:space="preserve" height="2596.4" viewBox="0 0 3157.7988 2596.3728" width="3157.8" version="1.1" xmlns:cc="http://creativecommons.org/ns#" xmlns:dc="http://purl.org/dc/elements/1.1/"><metadata id="metadata3361"><rdf:RDF><cc:Work rdf:about=""><dc:format>image/svg+xml</dc:format><dc:type rdf:resource="http://purl.org/dc/dcmitype/StillImage"/><dc:title/></cc:Work></rdf:RDF></metadata><defs id="defs3359"><clipPath id="clipPath3373" clipPathUnits="userSpaceOnUse"><path id="path3375" d="m1386.7 6029.4 196.22 323.2 130.81 3.84 1873.7-1300.4-227-919.54-677.14-165.44-1354.3 861.82 57.71 1196.6z"/></clipPath><linearGradient id="linearGradient3377" gradientUnits="userSpaceOnUse" gradientTransform="matrix(1179.9 -838.18 -838.18 -1179.9 1473 5644.3)"><stop id="stop3379" stop-color="#55a8ba" offset="0"/><stop id="stop3381" stop-color="#63c6da" offset="1"/></linearGradient><clipPath id="clipPath3405" clipPathUnits="userSpaceOnUse"><path id="path3407" d="m730.63 9646.4-70.367-164.21v-856.19l246.3-222.85 211.12-23.45-31.4-901.04 1861.1-1210.1 450.7 2348.1-1787.8 1076.7-879.65-46.9z"/></clipPath><clipPath id="clipPath3641" clipPathUnits="userSpaceOnUse"><path id="path3643" d="m8764.5 10562 5188.3-4137.1v-4498.8h-6013.5l-4188 3075.6 5.76 665.9-497.36 350.4-22.6 146.97-135.66 124.33 56.53 146.94-169.57 192.16 214.8 146.93-180.86 158.27 892.96 373 350.43 1526-124.37 237.36 203.15 80.16 192.49 44.18 1051.2-384.3 214.42 239.33 1775-974.06 1186.9 2486.7z"/></clipPath><linearGradient id="linearGradient3645" gradientUnits="userSpaceOnUse" gradientTransform="matrix(4774.4 -3167.2 -3167.2 -4774.4 6895.7 7209.9)"><stop id="stop3647" stop-color="#55a8ba" offset="0"/><stop id="stop3649" stop-color="#63c6da" offset="1"/></linearGradient></defs><g id="g3363" transform="matrix(1.25 0 0 -1.25 -1263.7 4574.3)"><g id="g3365" transform="scale(.34158)"><path id="path3367" d="m-353.79-476.27h14669v14669h-14669v-14669z" fill="#64c7da"/><g id="g3369" transform="translate(-817.12 -58.365)"><g id="g3371" clip-path="url(#clipPath3373)"><path id="path3383" d="m1386.7 6029.4 196.22 323.2 130.81 3.84 1873.7-1300.4-227-919.54-677.14-165.44-1354.3 861.82 57.71 1196.6" fill="url(#linearGradient3377)"/></g></g><g><path id="path3385" d="m437.16 6264.6v-1317.5c0-91.73 74.35-166.05 166.07-166.05h39.54v1483.6h-205.61" fill="#efefef"/><path id="path3387" d="m642.77 4781h39.54c91.72 0 166.07 74.32 166.07 166.05v1317.5h-205.61v-1483.6" fill="#fff"/><path id="path3389" d="m388.83 6323.6c-16.32 0-29.54-13.2-29.54-29.51 0-16.3 13.22-29.54 29.54-29.54h253.94v59.05h-253.94" fill="#efefef"/><path id="path3391" d="m896.73 6323.6h-253.96v-59.05h253.96c16.3 0 29.53 13.24 29.53 29.54 0 16.31-13.23 29.51-29.53 29.51" fill="#fff"/><path id="path3393" d="m488.31 5727.6v-786.9c0-68.88 55.85-124.77 124.76-124.77h29.7v911.67h-154.46" fill="#558ec3"/><path id="path3395" d="m642.77 5727.6v-911.67h29.71c9.46 0 18.65 1.11 27.5 3.1v908.57h-57.21" fill="#5b93be"/><path id="path3397" d="m735.14 5727.6v-894.75c37.12 21.61 62.08 61.8 62.08 107.85v786.9h-62.08" fill="#5b93be"/><path id="path3399" d="m699.98 5727.6v-908.57c12.55 2.81 24.37 7.53 35.16 13.82v894.75h-35.16" fill="#6dabcc"/></g><g id="g3401"/><path id="path3611" d="m8198.9 14342c1.53-7.8 9.02-12.8 16.78-11.3l451.31 87.1c7.73 1.5 12.88 9 11.33 16.7-1.46 7.8-9.02 12.8-16.74 11.3l-451.37-87.1c-7.7-1.5-12.77-9-11.31-16.7" fill="#fff"/><g id="g3637"><g id="g3639" clip-path="url(#clipPath3641)"><path id="path3651" d="m8764.5 10562 5188.3-4137.1v-4498.8h-6013.5l-4188 3075.6 5.76 665.9-497.36 350.4-22.6 146.97-135.66 124.33 56.53 146.94-169.57 192.16 214.8 146.93-180.86 158.27 892.96 373 350.43 1526-124.37 237.36 203.15 80.16 192.49 44.18 1051.2-384.3 214.42 239.33 1775-974.06 1186.9 2486.7" fill="url(#linearGradient3645)"/></g></g><g><path id="path3709" d="m9299.8 5414.4 7.94-35.1c-22.05 381.87-30.54 749.98-31.59 1079.2l-0.32 0.85 0.32 1.17c0 0.79-0.03 1.61-0.03 2.4l0.59-0.35 262.89 974.93c-63.97 64.33-267.81 60.81-267.81 60.81h-396.07v0.15c-100.06 4.94-194.54 30.91-279.15 73.57-0.55-0.7-1.11-1.41-1.63-2.17l41.16-24.3 166.69-683.73-228.76-57.18 152.5-285.9-775.83-1534.7-66.43-189.67v-28.87h1425.3l-9.78 648.84" fill="#fbfcfc"/><path id="path3711" d="m7732.6 5078.5-118.89 174.74-639.73 1265.5 152.47 285.9-228.73 57.18 166.69 683.73 41.17 24.3c-0.53 0.76-1.12 1.47-1.64 2.17-84.61-42.66-179.11-68.63-279.15-73.57v-0.15h-350.66c0.06-0.7 0.09-1.4 0.15-2.08-2.26 0.03-4.45 0.15-6.74 0.15-229.9 0-416.29-186.37-416.29-416.3 0-33.96 4.15-66.95 11.82-98.57l-521.6-1000.8-1009-177.8-179.37-31.59-68.42 585.99c-37.15 105.18-69.76 212.51-97.67 321.73-60.22 70.03-147.13 115.29-242.84 121.41-20.75 1.32-41.89 0.94-63.29-1.58-191.96-22.4-329.38-196.15-306.96-388.11l127.15-1089c11.18-95.64 61.3-182.51 138.56-240.03 60.81-45.29 148.87 28.72 223.64 28.72 20.2 0 40.54 1.73 60.72 5.3l567.91 151.18 204.32 36.77 936.55 17.74c107.09 18.88 199.34 86.45 249.58 182.88l385.41 739.59c-2.37-49.48-4.86-96.46-7.26-140.2l-0.15-40.93-29.68-997.48-8.93-299.72h1430.6v24.1l-119.77 288.89" fill="#fbfcfc"/><path id="path3713" d="m8714 7535.2c-162.69 223.61-441.62 336.96-829.09 336.96-438.96 0-748.11-116.69-918.9-346.86-0.09-0.12-0.21-0.26-0.29-0.38 33.28 9.17 99.45 30.71 180.66 74.13 166.49 129.69 413.92 195.29 738.53 195.29 283.07 0 502.61-63.03 655.19-187.68 53.84-26.82 133.88-59.58 177.91-77.14-1.35 1.9-2.67 3.81-4.01 5.68" fill="#100f0d"/><path id="path3715" d="m7842.1 4632.5h0.32-0.32" fill="#f14f22"/><path id="path3717" d="m4269 6491.8c-8.4 71.91-38.09 136.08-81.95 187.13 27.91-109.22 60.52-216.55 97.67-321.73l-15.72 134.6" fill="#fbfcfc"/><path id="path3719" d="m7884.2 4794.4v9.78h-31.85v-14.55l16.36-39.44 15.49 44.21" fill="#e8e8e7"/><path id="path3721" d="m7868.8 4750.2-16.36 39.44v-24.04c2.05 0 4.09-0.06 6.15-0.06 8.6 0 17.15 0.12 25.7 0.18v28.69l-15.49-44.21" fill="#e8e8e7"/><path id="path3723" d="m9276.1 6458.5v2.02l-0.32-1.17 0.32-0.85" fill="#1f4468"/><path id="path3725" d="m7842.5 4632.5h-0.32 0.32" fill="#61cad0"/><path id="path3727" d="m8297.4 7973.2 0.38-0.29v140.52h-858.74v-203.02h-2.9c-36.07-80.07-86.86-152.04-148.78-212.69 670.35-64.21 1010 275.48 1010 275.48" fill="#d5a889"/><path id="path3729" d="m8297.8 7842v130.9l-0.38 0.29s-339.69-339.69-1010-275.48c-51.41-50.36-110.46-92.96-175.36-125.68 83.99-119.8 196.2-218.25 327.04-285.76v-188.83h1.08v-12.85h816.2v12.85h41.46v206.92c117.48 67.04 218.51 159.7 295.48 270.33-122.47 58.81-225.13 152.06-295.48 267.31" fill="#f3c199"/><path id="path3731" d="m8458.2 7428.7c-161.11-150.24-376.96-242.4-614.64-242.4-218.17 0-417.71 77.76-573.63 206.68l598.39-2643.5 589.88 2679.2" fill="#d3d5dd"/><path id="path3733" d="m8021.8 5183.7 135.16 330.79-160.78 1503.2-127 37.03v1.61l-2.78-0.78-2.75 0.78v-1.61l-127.03-37.03-171.87-1602.8 204.51-387.7 97.84-273.87 32 56.91 80.01 225.87 42.69 147.6" fill="#3f557a"/><path id="path3735" d="m8060.7 7264.6-198.81 27.26-198.84-27.26-38.64-110.46 93.89-149.09 143.59-5.54 143.63 5.54 93.85 149.09-38.67 110.46" fill="#3f557a"/><path id="path3737" d="m7215.3 7634.7 637.63-342.78-452.49-452.54-335.97 706.18 150.83 89.14" fill="#bdccc2"/><path id="path3739" d="m8492 7634.7-637.62-342.78 452.48-452.54 327.68 698.92-142.54 96.4" fill="#bdccc2"/><path id="path3741" d="m8960.9 9469.8c0 773.85-465.28 1017.6-1070 1017.6-7.44 0-14.82-0.1-22.22-0.2v-2655.3c603.51 2.46 1092.3 865.18 1092.3 1638" fill="#f3c199"/><path id="path3743" d="m7841.1 10486c-582.76-19-1069.8-264.2-1069.8-1016.6 0-763.21 476.84-1620.2 1069.8-1637.2 8.4-0.26 16.69-0.82 25-0.82 0.85 0 1.7 0.06 2.58 0.06v2655.3c-9.2-0.2-18.39-0.4-27.58-0.7" fill="#e2b28e"/><path id="path3745" d="m9033.8 9567.6c-26.17 346.06-167.25 596.38-167.25 596.38 94.36 421.1-299.25 538.4-714.29 548.6-383.69 9.2-785.61-72.9-837.52-91.9-56.24-20.5-135.4-27.6-198.05-29.7-57.53-1.9-101.41 0.2-101.41 0.2 2.35-9.4 11.6-31.6 20.67-52 9.37-21.6 18.56-41.1 18.56-41.1-11.01-1.2-31.09 4.3-55.21 13.2-84.02 30.8-219.78 104.5-219.78 104.5-14.66-113 12.36-213.7 43.04-286.1s65.02-116.6 65.02-116.6c-24.65-4.9-93.36 24.6-93.36 24.6 19.73-93.3 39.38-137.6 39.38-137.6-147.73-107.75-181.95-419.04-184.67-662.53l253.23-295.68 87.56 212.25c1.88-0.26 3.64-0.32 5.54-0.56 61.8 223.44 113.29 559.99 113.29 559.99 660.66-424.12 1268.5-85.25 1373.6-20.14 19.93 21.84 30.47 34.95 30.47 34.95 37.48-424.41 324.46-711.49 324.46-711.49-23.98 180.25 182.8 321.6 198.2 331.81 0.64 0.44 1.43 1 1.43 1-0.79 6.18-1.87 11.83-2.9 17.92" fill="#352118"/><path id="path3747" d="m8817.5 9289.2c-41.34-157.91-11.95-302.53 65.46-322.87 77.58-20.53 173.86 90.95 215.32 248.89 41.34 157.86 11.91 302.48-65.49 322.91-77.49 20.41-173.84-90.98-215.29-248.93" fill="#f3c199"/><path id="path3749" d="m6885.4 9285.1c42.94-154.31 20.37-295.39-50.01-314.95-70.38-19.64-162.15 89.58-204.99 243.96-42.82 154.39-20.37 295.41 49.98 315.03 70.46 19.56 162.33-89.61 205.02-244.04" fill="#e2b28e"/><path id="path3751" d="m7868.4 4749.5-598.39 2643.5-54.72 241.7-109.66-64.84-41.17-24.3-166.69-683.73 228.73-57.18-152.47-285.9 894.37-1769.2" fill="#e8e8e7"/><path id="path3753" d="m8821.1 6861.8-166.69 683.73-1.81 1.09-152.94 81.85-41.45-199.78-589.88-2679.2 876.57 1769.2-152.52 285.9 228.72 57.18" fill="#e8e8e7"/><path id="path3755" d="m6507.5 5557.9-2756.2-556.4-704.9 3491.1 2756.2 556.5 704.9-3491.2" fill="#295e6c"/><path id="path3757" d="m6325.3 5712.4-2466.1-497.9-630.6 3123.7 2466.1 497.9 630.6-3123.7" fill="#fff"/></g><g fill="#2c4452"><path id="path3759" d="m3820.5 7425-183.73-37.09-37.09 183.71 183.76 37.09 37.06-183.71"/><path id="path3761" d="m5529.7 7770.1-1525.8-308.04-37.1 183.71 1525.8 308.07 37.09-183.74"/><path id="path3763" d="m3890.9 7076-183.73-37.12-37.06 183.7 183.7 37.12 37.09-183.7"/><path id="path3765" d="m5407.8 7382.2-1333.4-269.22-37.09 183.71 1333.4 269.22 37.09-183.71"/><path id="path3767" d="m3961.4 6727-183.74-37.1-37.09 183.71 183.77 37.09 37.06-183.7"/><path id="path3769" d="m5351.5 7007.6-1206.6-243.6-37.09 183.7 1206.7 243.61 37.06-183.71"/><path id="path3771" d="m4031.9 6378-183.76-37.09-37.09 183.68 183.76 37.12 37.09-183.71"/><path id="path3773" d="m5780.1 6730.9-1564.9-315.94-37.1 183.7 1564.9 315.94 37.09-183.7"/><path id="path3775" d="m4102.4 6028.9-183.76-37.09-37.12 183.7 183.79 37.12 37.09-183.73"/><path id="path3777" d="m5850.6 6381.9-1564.9-315.95-37.09 183.71 1564.9 315.94 37.09-183.7"/></g><g fill="#e2b28e"><path id="path3779" d="m3143.4 6870.7c6.82 0 13.73 0.47 20.7 1.46l402.13 57.47c79.31 11.33 134.43 84.81 123.1 164.12s-84.67 134.4-164.12 123.08l-402.16-57.41c-79.3-11.34-134.43-84.84-123.1-164.15 10.36-72.34 72.4-124.57 143.45-124.57"/><path id="path3781" d="m3122.8 6556.1 393.93 49.23c79.48 9.96 135.9 82.45 125.94 161.96-9.92 79.51-82.38 135.81-161.92 125.97l-393.96-49.24c-79.51-9.95-135.9-82.44-125.97-161.95 9.19-73.4 71.69-127.12 143.77-127.12 6 0 12.09 0.41 18.21 1.15"/><path id="path3783" d="m3600.8 6318.6c78.75 14.78 130.63 90.58 115.84 169.33-14.75 78.75-90.54 130.63-169.32 115.87l-393.94-73.86c-78.75-14.75-130.6-90.58-115.84-169.33 13.06-69.71 73.98-118.36 142.42-118.36 8.88 0 17.86 0.82 26.88 2.52l393.96 73.83"/><path id="path3785" d="m3790.6 6203.6c-11.79 70.79-78.63 118.65-149.51 106.82l-352.83-58.81c-70.75-11.8-118.59-78.75-106.77-149.51 10.57-63.56 65.64-108.62 128-108.62 7.08 0 14.28 0.59 21.52 1.82l352.8 58.82c70.79 11.76 118.59 78.69 106.79 149.48"/></g><g><path id="path3787" d="m9717.9 7238.1c98.57-208.79 37.88-444.43-135.55-526.35-173.43-81.91-393.99 20.96-492.56 229.73-98.6 208.79-37.91 444.46 135.52 526.34 173.43 81.92 393.99-20.93 492.59-229.72" fill="#fbfcfc"/><path id="path3789" d="m7851 5399.1c0-26.64-21.6-48.24-48.24-48.24s-48.25 21.6-48.25 48.24 21.61 48.25 48.25 48.25 48.24-21.61 48.24-48.25" fill="#2f2d32"/><path id="path3791" d="m7997.9 5384.6c0-26.64-21.61-48.24-48.25-48.24s-48.24 21.6-48.24 48.24c0 26.67 21.6 48.28 48.24 48.28s48.25-21.61 48.25-48.28" fill="#2f2d32"/><path id="path3793" d="m9288.5 5320.4c-207.5 144.68-634.25 217.58-1020.4 238.16l-187.95-383.6 1221.6-57.5-13.23 202.94" fill="#e8e8e7"/></g><g fill="#100f0d"><path id="path3795" d="m6819.7 7020.3c2.84-147.05 34.72-253.88 36.07-258.36l74.48 22.51c-1.2 4.02-117.9 403.77 98.63 694.95 33.14 44.59 72.39 84.46 117.54 119.65-81.21-43.42-147.38-64.96-180.66-74.13-99.36-134.11-149.86-308.56-146.06-504.62"/><path id="path3797" d="m8732.9 6522.6 37.01-11.97-37.01 11.97"/><path id="path3799" d="m8718 7529.5c-44.03 17.56-124.07 50.32-177.91 77.14 42.01-34.31 78.99-73.31 110.81-116.99 140-192.25 155.28-443.49 143.42-620.38-13.06-194.62-60.89-344.89-61.45-346.68l37.01-11.97 37.03-11.97c2.08 6.41 50.97 159.46 64.9 363.37 18.42 269.83-34.78 500.4-153.81 667.48"/></g><path id="path3801" d="m9013.9 6510.8c0-130.92-106.13-237.04-237.05-237.04-130.89 0-237.04 106.12-237.04 237.04 0 130.9 106.15 237.05 237.04 237.05 130.92 0 237.05-106.15 237.05-237.05" fill="#e8e8e7"/><path id="path3803" d="m8776.9 6730.8c-121.32 0-220-98.69-220-220.01 0-121.31 98.68-220.03 220-220.03 121.35 0 220.04 98.72 220.04 220.03 0 121.32-98.69 220.01-220.04 220.01zm0-474.06c-140.08 0-254.05 113.97-254.05 254.05 0 140.09 113.97 254.06 254.05 254.06 140.12 0 254.06-113.97 254.06-254.06 0-140.08-113.94-254.05-254.06-254.05" fill="#100f0d"/><g fill="#b2b1b0"><path id="path3805" d="m8948.3 6510.8c0-94.67-76.76-171.41-171.41-171.41s-171.38 76.74-171.38 171.41c0 94.65 76.73 171.38 171.38 171.38s171.41-76.73 171.41-171.38"/><path id="path3807" d="m6906.9 5229.3c-188.95 10.07-211.4 131.44-212.25 136.59l-126.92 759.09 57.62 9.63 126.94-759.08c0.59-2.84 17.74-80.42 157.68-87.83l-3.07-58.4"/><path id="path3809" d="m7344.5 5339.4c175.43 70.96 157.13 193.05 156.28 198.2l-126.91 759.08-57.64-9.63 126.9-759.09c0.39-2.89 9.37-81.82-120.55-134.37l21.92-54.19"/></g><g fill="#262323"><path id="path3811" d="m6956.4 5322.4c55.47-11.04 94.7-49.09 87.56-85.02-7.14-35.89-57.93-56.09-113.41-45.05-55.54 11.03-94.74 49.09-87.63 85.01 7.15 35.93 57.94 56.1 113.48 45.06"/><path id="path3813" d="m7266.9 5374.4c-48.89-28.52-73.59-77.26-55.18-108.88 18.45-31.65 73.04-34.22 121.93-5.74 48.89 28.52 73.6 77.26 55.19 108.91-18.42 31.61-73.05 34.19-121.94 5.71"/><path id="path3815" d="m6551.8 6103.9c-1.11 6.7-27.29 166.57-6.06 337.16 29.72 238.69 138.12 380.38 313.48 409.68 415.75 69.53 528.31-574.33 532.91-601.76l-86.48-14.49c-0.97 5.86-102.32 584.9-432 529.8-135.07-22.6-216.14-134.99-240.9-334.03-19.65-158.06 5.27-310.41 5.53-311.93l-86.48-14.43"/></g><path id="path3817" d="m4699 8075.4-126.73-23.77 23.74-126.68-110.22-20.64-23.77 126.68-126.59-23.75-20.67 110.23 126.62 23.74-23.74 126.59 110.25 20.64 23.71-126.59 126.74 23.77 20.66-110.22zm-243.42 294.72c-151.18-28.34-250.75-173.87-222.41-325.05 28.34-151.15 173.84-250.74 325.05-222.41 151.15 28.34 250.75 173.87 222.41 325.05-28.34 151.15-173.87 250.74-325.05 222.41" fill="#dc333e"/><path id="path3819" d="m4912.1 8965-502.37-117.19-508.57-86.89s57.96-160.93 6.15-331.69l544.17 109.87 39.44 7.96 553.01 111.66c-114.08 137.24-131.83 306.28-131.83 306.28" fill="#2f4b53"/><g fill="#2c4452"><path id="path3821" d="m5049.8 8671.2c6.59-32.62-14.46-64.38-47.05-70.97l-1044.8-210.9c-32.58-6.59-64.4 14.49-70.99 47.08-6.56 32.58 14.58 64.37 47.16 70.96l1044.8 210.93c32.58 6.56 64.32-14.55 70.88-47.1"/><path id="path3823" d="m4932.3 8963.3c5.95-29.45-13.11-58.11-42.53-64.05l-943.8-190.5c-29.42-5.91-58.14 13.12-64.11 42.54-5.95 29.48 13.17 58.14 42.59 64.08l943.79 190.56c29.42 5.94 58.08-13.09 64.05-42.57"/><path id="path3825" d="m4392.1 8913.9c-65.2-13.14-128.72 29.04-141.87 94.15-13.17 65.2 29.04 128.73 94.21 141.87 65.14 13.18 128.67-29.01 141.81-94.21 13.17-65.11-29.04-128.63-94.15-141.81zm299.84 80.92c-33.87 167.78-197.43 276.36-365.21 242.49s-276.33-197.41-242.46-365.18l18.06-89.56 607.68 122.67-18.07 89.58"/></g><g><path id="path3827" d="m7357.4 6098.2s43.33-48.63 161.86-80.98l-35.92-650.13s-107.7 21.03-211.9-25.64l85.96 756.75" fill="#e2b28e"/><path id="path3829" d="m7758 6106.1-251.3 12.21c-34.78 1.7-64.38-25.12-66.07-59.9l-16-330.4-16.1-330.3c-1.7-34.78 25.15-64.38 59.9-66.05l251.33-12.23c34.75-1.67 64.35 25.14 66.02 59.95l16.07 330.32 16.04 330.34c1.7 34.78-25.15 64.35-59.9 66.05" fill="#fff"/><path id="path3831" d="m6528.6 5453.1c2.6 53.6 47.19 94.65 100 95.67-0.09 0.58-0.26 0.99-0.38 1.37l-94.68 4.63c-55.91 2.69-99.48 50.62-96.75 106.65 2.72 55.77 50.73 99.45 106.62 96.73l-101.68 4.95c-55.91 2.72-99.47 50.58-96.75 106.59 2.69 55.77 50.73 99.45 106.65 96.75l-406.73 19.77c-55.88 2.69-99.48 50.58-96.75 106.59 2.72 55.8 50.73 99.45 106.62 96.72l64.96-3.16 545.11-26.49 73.51-3.57c12.39-0.59 23.95 10.21 28.11 21.98 4.19 11.71 0.29 26.2-9.75 33.67-93.95 79.6-190.56 79.54-185.31 187.39 1.2 25 15.51 47.6 37.7 59.28 22.22 11.45 48.89 10.57 70.12-2.6l670.17-351.89c15.67-9.72 24.83-27.29 23.95-45.73-4.33-88.97-19.58-402.74-28.87-594-4.09-84.2-75.61-149.19-159.93-145.09-272.44 13.23-559.22 27.17-559.22 27.17-55.88 2.72-99.45 50.61-96.72 106.62" fill="#e2b28e"/><path id="path3833" d="m9914.4 5156.9c-6.15 0-12.27 0.12-18.42 0.38l-2368.9 98.72 36.71 881.39 1800.7-141.93-387.55 917.88 757.01 288.43 572.27-1401.4c72.1-139.65 64.5-307.14-20-439.64-81.3-127.29-221.7-203.84-371.84-203.84" fill="#fbfcfc"/><path id="path4169" d="m6004.7 12850c0-74.5-59.2-134.9-132.21-134.9h-793.1c-73.02 0-132.22 60.4-132.22 134.9v1258.3c0 74.5 59.2 134.9 132.22 134.9h793.1c73.01 0 132.21-60.4 132.21-134.9v-1258.3" fill="#3f3e5d"/><path id="path4171" d="m5702.7 14175c0-16.3-13.26-29.6-29.57-29.6h-394.43c-16.33 0-29.57 13.3-29.57 29.6v9.4c0 16.3 13.24 29.6 29.57 29.6h394.43c16.31 0 29.57-13.3 29.57-29.6v-9.4" fill="#b6e7e7"/><path id="path4173" d="m5419.1 13912c0 108.8-87.89 197-196.53 197.6v-395.1c108.64 0.5 196.53 88.8 196.53 197.5" fill="#fff"/><path id="path4175" d="m5221.5 14110c-109.11 0-197.58-88.4-197.58-197.6 0-109.1 88.47-197.6 197.58-197.6 0.35 0 0.7 0.1 1.05 0.1v395.1h-1.05" fill="#efefef"/><path id="path4177" d="m5419.1 13450c0 108.8-87.89 197-196.53 197.6v-395.1c108.64 0.6 196.53 88.8 196.53 197.5" fill="#fff"/><path id="path4179" d="m5221.5 13648c-109.11 0-197.58-88.4-197.58-197.6 0-109.1 88.47-197.5 197.58-197.5h1.05v395.1h-1.05" fill="#efefef"/><path id="path4181" d="m5419.1 12988c0 108.7-87.89 197-196.53 197.5v-395.1c108.64 0.6 196.53 88.8 196.53 197.6" fill="#fff"/><path id="path4183" d="m5023.9 12988c0-109.1 88.47-197.6 197.58-197.6h1.05v395.1c-0.35 0-0.7 0.1-1.05 0.1-109.11 0-197.58-88.5-197.58-197.6" fill="#efefef"/><path id="path4185" d="m5927.9 13912c0 107.9-86.43 195.5-193.8 197.5v-394.9c107.37 2 193.8 89.6 193.8 197.4" fill="#fff"/><path id="path4187" d="m5730.4 14110c-109.15 0-197.61-88.4-197.61-197.6 0-109.1 88.46-197.6 197.61-197.6 1.25 0 2.48 0.1 3.75 0.2v394.9c-1.27 0-2.5 0.1-3.75 0.1" fill="#efefef"/><path id="path4189" d="m5927.9 13450c0 107.9-86.43 195.5-193.8 197.5v-394.9c107.37 2 193.8 89.6 193.8 197.4" fill="#fff"/><path id="path4191" d="m5730.4 13648c-109.15 0-197.61-88.4-197.61-197.6 0-109.1 88.46-197.5 197.61-197.5 1.25 0 2.48 0 3.75 0.1v394.9c-1.27 0.1-2.5 0.1-3.75 0.1" fill="#efefef"/><path id="path4193" d="m5532.8 12988c0-109.1 88.46-197.6 197.61-197.6 1.25 0 2.48 0.1 3.75 0.1v395c-1.27 0-2.5 0.1-3.75 0.1-109.15 0-197.61-88.5-197.61-197.6" fill="#efefef"/><path id="path4195" d="m5927.9 12988c0 107.8-86.43 195.5-193.8 197.5v-395c107.37 2 193.8 89.6 193.8 197.5" fill="#fff"/></g></g></g></svg>
